<?xml version="1.0" encoding="UTF-8"?>
<svg id="Layer_2" data-name="Layer 2" xmlns="http://www.w3.org/2000/svg" viewBox="0 0 496 94">
  <defs>
    <style>
      .cls-1 {
        fill: #fff;
      }
    </style>
  </defs>
  <path class="cls-1" d="M29.6,66.3V9.5h11.6V56.6h28.8v9.6H29.6Z"/>
  <path class="cls-1" d="M105.4,66.3v-6.2c-1.5,2.2-3.5,4-6,5.2s-5.1,1.9-7.8,1.9-5.3-.6-7.5-1.8c-2.2-1.2-3.8-2.9-4.8-5.2-1-2.2-1.5-5.3-1.5-9.2V24.8h11v19.1c0,5.8,.2,9.4,.6,10.7,.4,1.3,1.1,2.4,2.2,3.1,1.1,.8,2.4,1.2,4.1,1.2s3.6-.5,5-1.5c1.5-1,2.5-2.3,3-3.8s.8-5.3,.8-11.2V24.8h11v41.5h-10.2Z"/>
  <path class="cls-1" d="M163.1,37l-10.8,2c-.4-2.2-1.2-3.8-2.5-4.9s-3-1.6-5-1.6-4.9,.9-6.5,2.8c-1.6,1.9-2.4,5-2.4,9.5s.8,8.4,2.5,10.4c1.7,2,3.9,3,6.7,3s3.8-.6,5.1-1.8c1.3-1.2,2.3-3.2,2.8-6.1l10.8,1.8c-1.1,4.9-3.3,8.7-6.4,11.2-3.2,2.5-7.4,3.8-12.8,3.8s-10.9-1.9-14.5-5.7c-3.6-3.8-5.4-9.1-5.4-15.9s1.8-12.2,5.4-16c3.6-3.8,8.5-5.7,14.7-5.7s9.1,1.1,12.1,3.3c3,2.2,5.1,5.5,6.4,9.9Z"/>
  <path class="cls-1" d="M171,66.3V9h11v30.4l12.9-14.6h13.5l-14.2,15.2,15.2,26.3h-11.8l-10.4-18.6-5.1,5.4v13.3h-11Z"/>
  <path class="cls-1" d="M210.7,24.8h11.7l9.9,29.5,9.7-29.5h11.4l-14.6,39.9-2.6,7.2c-1,2.4-1.9,4.3-2.8,5.5-.9,1.3-1.9,2.3-3,3.1-1.1,.8-2.5,1.4-4.2,1.9-1.7,.4-3.5,.7-5.6,.7s-4.2-.2-6.2-.7l-1-8.6c1.7,.3,3.3,.5,4.6,.5,2.6,0,4.4-.7,5.7-2.2,1.2-1.5,2.2-3.4,2.8-5.7l-15.8-41.6Z"/>
  <path class="cls-1" d="M282.7,9h21.1c4.8,0,8.4,.4,10.9,1.1,3.4,1,6.2,2.7,8.6,5.3,2.4,2.5,4.2,5.6,5.5,9.3,1.2,3.7,1.9,8.2,1.9,13.5s-.6,8.8-1.8,12.2c-1.4,4.2-3.5,7.5-6.1,10.1-2,2-4.7,3.5-8.1,4.6-2.6,.8-6,1.2-10.2,1.2h-21.8V9Zm11.6,9.7V56.6h8.6c3.2,0,5.6-.2,7-.5,1.9-.5,3.4-1.3,4.7-2.4,1.2-1.1,2.2-3,3-5.5,.8-2.6,1.2-6.1,1.2-10.5s-.4-7.8-1.2-10.2c-.8-2.4-1.9-4.2-3.3-5.5s-3.2-2.2-5.4-2.7c-1.6-.4-4.8-.5-9.5-.5h-5.2Z"/>
  <path class="cls-1" d="M350.9,66.3h-11V24.8h10.2v5.9c1.7-2.8,3.3-4.6,4.7-5.5,1.4-.9,3-1.3,4.7-1.3s4.9,.7,7.2,2.1l-3.4,9.6c-1.8-1.2-3.6-1.8-5.2-1.8s-2.8,.4-3.9,1.3c-1.1,.8-1.9,2.4-2.5,4.6-.6,2.2-.9,6.8-.9,13.9v12.8Z"/>
  <path class="cls-1" d="M379.8,37.4l-10-1.8c1.1-4,3-7,5.8-8.9,2.7-1.9,6.8-2.9,12.2-2.9s8.5,.6,10.9,1.7c2.4,1.2,4.1,2.6,5.1,4.4,1,1.8,1.5,5.1,1.5,9.8v12.8c-.1,3.6,0,6.3,.4,8.1,.4,1.7,1,3.6,2,5.6h-10.9c-.3-.7-.6-1.8-1.1-3.2-.2-.7-.3-1.1-.4-1.3-1.9,1.8-3.9,3.2-6,4.1-2.1,.9-4.4,1.4-6.8,1.4-4.3,0-7.6-1.2-10.1-3.5-2.5-2.3-3.7-5.2-3.7-8.8s.6-4.4,1.7-6.3c1.1-1.8,2.7-3.2,4.7-4.2,2-1,4.9-1.8,8.7-2.6,5.1-1,8.7-1.9,10.7-2.7v-1.1c0-2.1-.5-3.6-1.6-4.5-1-.9-3-1.3-5.9-1.3s-3.5,.4-4.6,1.2c-1.1,.8-2,2.1-2.7,4Zm14.7,8.9c-1.4,.5-3.6,1-6.7,1.7-3,.7-5,1.3-6,1.9-1.4,1-2.1,2.3-2.1,3.9s.6,2.9,1.7,4c1.1,1.1,2.6,1.7,4.4,1.7s3.9-.7,5.7-2c1.3-1,2.2-2.2,2.6-3.6,.3-.9,.4-2.7,.4-5.4v-2.2Z"/>
  <path class="cls-1" d="M423.8,66.3l-13.1-41.5h10.7l7.8,27.2,7.1-27.2h10.6l6.9,27.2,7.9-27.2h10.8l-13.3,41.5h-10.5l-7.1-26.7-7,26.7h-10.7Z"/>
</svg>