<?xml version="1.0" encoding="UTF-8"?>
<svg xmlns="http://www.w3.org/2000/svg" viewBox="0 0 496 94">
  <defs>
    <style>
      .cls-1 {
        fill: #fff;
      }
    </style>
  </defs>
  <g id="Layer_3" data-name="Layer 3">
    <rect width="496" height="94"/>
  </g>
  <g id="Layer_2" data-name="Layer 2">
    <g>
      <path class="cls-1" d="M29.6,66.26V9.46h11.56V56.61h28.75v9.65H29.6Z"/>
      <path class="cls-1" d="M105.38,66.26v-6.21c-1.51,2.21-3.5,3.96-5.96,5.23s-5.06,1.91-7.79,1.91-5.29-.61-7.5-1.84c-2.21-1.22-3.82-2.94-4.8-5.16-.99-2.21-1.48-5.27-1.48-9.18V24.77h10.98v19.06c0,5.83,.2,9.41,.61,10.72,.4,1.32,1.14,2.36,2.21,3.12,1.07,.77,2.42,1.15,4.06,1.15,1.88,0,3.55-.51,5.04-1.54,1.48-1.03,2.5-2.3,3.05-3.83s.82-5.25,.82-11.19V24.77h10.98v41.48h-10.2Z"/>
      <path class="cls-1" d="M163.12,37.04l-10.82,1.95c-.37-2.16-1.19-3.79-2.48-4.88s-2.96-1.64-5.02-1.64c-2.73,0-4.92,.94-6.54,2.83-1.63,1.89-2.44,5.05-2.44,9.47,0,4.92,.83,8.4,2.48,10.43,1.65,2.03,3.87,3.05,6.66,3.05,2.08,0,3.79-.59,5.12-1.78,1.33-1.18,2.27-3.22,2.81-6.11l10.78,1.84c-1.12,4.95-3.27,8.69-6.45,11.21-3.18,2.53-7.44,3.79-12.77,3.79-6.07,0-10.91-1.91-14.51-5.74-3.61-3.83-5.41-9.13-5.41-15.9s1.81-12.18,5.43-16c3.62-3.81,8.52-5.72,14.69-5.72,5.05,0,9.07,1.09,12.05,3.26,2.98,2.17,5.12,5.49,6.43,9.94Z"/>
      <path class="cls-1" d="M171.05,66.26V8.99h10.98v30.39l12.85-14.61h13.52l-14.18,15.16,15.2,26.33h-11.84l-10.43-18.63-5.12,5.35v13.28h-10.98Z"/>
      <path class="cls-1" d="M210.73,24.77h11.68l9.92,29.45,9.69-29.45h11.37l-14.65,39.92-2.62,7.23c-.96,2.42-1.88,4.27-2.75,5.55-.87,1.28-1.88,2.31-3.01,3.11-1.13,.79-2.53,1.41-4.18,1.86-1.65,.44-3.52,.66-5.61,.66s-4.18-.22-6.21-.66l-.98-8.59c1.72,.34,3.27,.51,4.65,.51,2.55,0,4.44-.75,5.66-2.25,1.22-1.5,2.16-3.41,2.81-5.72l-15.78-41.6Z"/>
      <path class="cls-1" d="M282.69,8.99h21.13c4.77,0,8.4,.37,10.9,1.09,3.36,.99,6.24,2.75,8.63,5.27,2.4,2.53,4.22,5.62,5.47,9.28,1.25,3.66,1.88,8.17,1.88,13.54,0,4.71-.59,8.78-1.76,12.19-1.43,4.17-3.48,7.54-6.13,10.12-2.01,1.95-4.71,3.48-8.12,4.57-2.55,.81-5.96,1.21-10.23,1.21h-21.76V8.99Zm11.56,9.69V56.61h8.63c3.23,0,5.56-.18,6.99-.55,1.88-.47,3.43-1.26,4.67-2.38,1.24-1.12,2.25-2.96,3.03-5.53,.78-2.56,1.17-6.06,1.17-10.49s-.39-7.83-1.17-10.2c-.78-2.37-1.88-4.22-3.28-5.55s-3.19-2.23-5.35-2.7c-1.62-.36-4.78-.55-9.49-.55h-5.2Z"/>
      <path class="cls-1" d="M350.93,66.26h-10.98V24.77h10.2v5.9c1.74-2.79,3.31-4.62,4.71-5.51,1.39-.88,2.97-1.33,4.75-1.33,2.5,0,4.91,.69,7.23,2.07l-3.4,9.57c-1.85-1.2-3.57-1.8-5.16-1.8s-2.84,.42-3.91,1.27c-1.07,.85-1.91,2.38-2.52,4.59-.61,2.21-.92,6.85-.92,13.91v12.81Z"/>
      <path class="cls-1" d="M379.76,37.43l-9.96-1.8c1.12-4.01,3.05-6.98,5.78-8.91,2.73-1.93,6.8-2.89,12.19-2.89,4.9,0,8.54,.58,10.94,1.74,2.4,1.16,4.08,2.63,5.06,4.41,.98,1.78,1.46,5.06,1.46,9.82l-.12,12.81c0,3.65,.18,6.33,.53,8.07,.35,1.73,1.01,3.59,1.97,5.57h-10.86c-.29-.73-.64-1.81-1.05-3.24-.18-.65-.31-1.08-.39-1.29-1.88,1.82-3.88,3.19-6.02,4.1-2.14,.91-4.41,1.37-6.84,1.37-4.27,0-7.64-1.16-10.1-3.48-2.46-2.32-3.69-5.25-3.69-8.79,0-2.34,.56-4.43,1.68-6.27,1.12-1.84,2.69-3.24,4.71-4.22,2.02-.98,4.93-1.83,8.73-2.56,5.13-.96,8.68-1.86,10.66-2.7v-1.09c0-2.11-.52-3.61-1.56-4.51-1.04-.9-3.01-1.35-5.9-1.35-1.95,0-3.48,.38-4.57,1.15-1.09,.77-1.98,2.12-2.66,4.04Zm14.69,8.91c-1.41,.47-3.63,1.03-6.68,1.68-3.05,.65-5.04,1.29-5.98,1.91-1.43,1.02-2.15,2.3-2.15,3.87s.57,2.87,1.72,3.98c1.15,1.12,2.6,1.68,4.38,1.68,1.98,0,3.87-.65,5.66-1.95,1.33-.99,2.2-2.2,2.62-3.63,.29-.94,.43-2.72,.43-5.35v-2.19Z"/>
      <path class="cls-1" d="M423.78,66.26l-13.12-41.48h10.66l7.77,27.19,7.15-27.19h10.59l6.91,27.19,7.93-27.19h10.82l-13.32,41.48h-10.55l-7.15-26.68-7.03,26.68h-10.66Z"/>
    </g>
  </g>
</svg>